<?xml version="1.0" encoding="utf-8"?>
<!-- Generator: Adobe Illustrator 21.1.0, SVG Export Plug-In . SVG Version: 6.00 Build 0)  -->
<svg version="1.1" id="Layer_1" xmlns="http://www.w3.org/2000/svg" xmlns:xlink="http://www.w3.org/1999/xlink" x="0px" y="0px"
	 viewBox="0 0 738 229.7" style="enable-background:new 0 0 738 229.7;" xml:space="preserve">
<style type="text/css">
	.st0{fill:#717271;}
	.st1{clip-path:url(#SVGID_2_);fill:#717271;}
	.st2{clip-path:url(#SVGID_4_);fill:#717271;}
	.st3{clip-path:url(#SVGID_4_);fill:#ea2423;}
</style>
<polygon class="st0" points="27.7,218.4 19.8,218.4 19.8,187.8 8.2,187.8 8.2,180.8 39.3,180.8 39.3,187.8 27.7,187.8 "/>
<g>
	<defs>
		<rect id="SVGID_1_" width="738" height="229.7"/>
	</defs>
	<clipPath id="SVGID_2_">
		<use xlink:href="#SVGID_1_"  style="overflow:visible;"/>
	</clipPath>
	<path class="st1" d="M44.3,180.8h7.6v9.9c1.3-0.5,3.9-1.2,7-1.2c6.1,0,11,2.8,11,11.1v17.7h-7.6v-17.2c0-3.2-1.7-4.8-5-4.8
		c-1.8,0-3.8,0.3-5.3,0.8v21.2h-7.6V180.8z"/>
	<path class="st1" d="M83,206.3v0.1c0.6,4,4.5,6,8.3,6s6.6-0.9,9.4-2.5v6.4c-2.6,1.8-6.4,2.6-10.2,2.6c-9.2,0-14.9-5.6-14.9-14.4
		c0-9.3,5.9-15,13.8-15c8.8,0,12.2,5.8,12.2,13.3v3.5H83z M94.5,201.8c-0.1-3.5-1.7-6-5.3-6c-3.3,0-5.4,2.3-6.1,6H94.5z"/>
</g>
<polygon class="st0" points="145.3,180.8 153.3,180.8 153.3,218.4 145.3,218.4 145.3,203.1 128.2,203.1 128.2,218.4 120.1,218.4 
	120.1,180.8 128.2,180.8 128.2,196 145.3,196 "/>
<g>
	<defs>
		<rect id="SVGID_3_" width="738" height="229.7"/>
	</defs>
	<clipPath id="SVGID_4_">
		<use xlink:href="#SVGID_3_"  style="overflow:visible;"/>
	</clipPath>
	<path class="st2" d="M173.7,189.5c8.4,0,14.8,5.9,14.8,14.7c0,8.8-6.4,14.7-14.8,14.7c-8.4,0-14.7-5.9-14.7-14.7
		C158.9,195.5,165.3,189.5,173.7,189.5 M173.7,196.1c-4.1,0-7.1,3.1-7.1,8.2c0,5.1,3,8.2,7.1,8.2c4.1,0,7.1-3.1,7.1-8.2
		C180.8,199.2,177.8,196.1,173.7,196.1"/>
	<path class="st2" d="M227.2,200.7c0-3-1.3-4.5-4.3-4.5c-2,0-4,0.4-5.3,1.1c0.3,0.6,0.6,1.6,0.6,2.9v18.1h-7.7v-17.6
		c0-3-1.4-4.5-4.3-4.5c-1.8,0-3.2,0.3-4.7,0.7v21.4h-7.6V192c3.9-1.5,8.5-2.5,12.7-2.5c3.3,0,6.1,0.8,7.8,2.2
		c2.5-1.1,5.4-2.2,9.5-2.2c6.7,0,10.9,2.6,10.9,10.9v18h-7.6V200.7z"/>
	<path class="st2" d="M248,206.3v0.1c0.6,4,4.5,6,8.3,6s6.6-0.9,9.4-2.5v6.4c-2.6,1.8-6.4,2.6-10.2,2.6c-9.2,0-14.9-5.6-14.9-14.4
		c0-9.3,5.9-15,13.8-15c8.8,0,12.2,5.8,12.2,13.3v3.5H248z M259.5,201.8c-0.1-3.5-1.7-6-5.3-6c-3.3,0-5.4,2.3-6.1,6H259.5z"/>
	<path class="st2" d="M285.2,181c2.8-0.4,7.3-0.8,11.3-0.8c13.7,0,21.6,7.1,21.6,18.9c0,12.9-8.2,19.9-21.6,19.9
		c-4.1,0-8.4-0.3-11.3-0.8V181z M293.2,211.7c1.2,0.1,2.8,0.2,4.1,0.2c7.4,0,12.5-4,12.5-12.8c0-7.7-5-11.6-12.8-11.6
		c-1.2,0-2.7,0.1-3.8,0.2V211.7z"/>
	<path class="st2" d="M330.3,206.3v0.1c0.6,4,4.5,6,8.3,6c3.8,0,6.6-0.9,9.4-2.5v6.4c-2.6,1.8-6.4,2.6-10.2,2.6
		c-9.2,0-14.9-5.6-14.9-14.4c0-9.3,5.9-15,13.8-15c8.8,0,12.2,5.8,12.2,13.3v3.5H330.3z M341.9,201.8c-0.1-3.5-1.7-6-5.3-6
		c-3.3,0-5.4,2.3-6.1,6H341.9z M333.6,185.9l5.4-9.6h7l-5.4,9.6H333.6z"/>
	<path class="st2" d="M376.5,198.8c-2.3-1.9-4.6-2.6-7.2-2.6c-4.7,0-8,2.9-8,8c0,4.8,3.2,8.1,8.3,8.1c2.7,0,5-0.9,7.1-2.5v7.1
		c-2.5,1.5-5.3,2.1-8.2,2.1c-9.1,0-14.9-5.8-14.9-14.7c0-8.9,6.3-14.8,14.9-14.8c3.2,0,5.6,0.6,8,2.1V198.8z"/>
	<path class="st2" d="M395.8,189.5c8.4,0,14.8,5.9,14.8,14.7c0,8.8-6.4,14.7-14.8,14.7c-8.4,0-14.7-5.9-14.7-14.7
		C381.1,195.5,387.4,189.5,395.8,189.5 M395.8,196.1c-4.1,0-7.1,3.1-7.1,8.2c0,5.1,3,8.2,7.1,8.2c4.1,0,7.1-3.1,7.1-8.2
		C402.9,199.2,399.9,196.1,395.8,196.1"/>
	<path class="st2" d="M424.2,218.4h-7.6v-26c3.1-1.6,7.1-2.6,11.3-2.6c2.2,0,3.8,0.2,5.9,0.8v7.3c-1.8-0.8-3.9-1-5.7-1
		c-1.4,0-2.7,0.3-3.9,0.6V218.4z"/>
	<path class="st2" d="M449.3,208.3c2.8,2.1,6,3.9,10.2,3.9c3.2,0,6.1-1.1,6.1-4.2c0-2.8-2.3-3.9-6.3-5.1
		c-7.5-2.1-10.6-5.2-10.6-11.6c0-7.2,5.6-11.1,12.5-11.1c4.2,0,7.3,1.1,10,2.8v7.9c-3-2.4-6-3.9-9.7-3.9c-3.2,0-5,1.6-5,3.9
		c0,2.7,2.2,3.7,6.5,4.9c7.5,2.2,10.4,5.5,10.4,11.8c0,7.8-6.2,11.3-13.9,11.3c-4.1,0-7.8-1.1-10.2-2.7V208.3z"/>
	<path class="st2" d="M503.7,217.5c-3.2,0.9-8.1,1.5-11.6,1.5c-8.2,0-13.3-2.5-13.3-10.9v-18h7.6v17.3c0,3.6,1.6,5.3,5.6,5.3
		c1.1,0,2.7-0.1,4-0.4v-22.2h7.6V217.5z"/>
	<path class="st2" d="M511.7,191.9c3-1.3,7.7-2.3,12.3-2.3c9.2,0,15.5,5.3,15.5,14.2c0,9.8-5.9,15.3-15.7,15.3
		c-1.9,0-3.5-0.3-4.5-0.6v11.3h-7.7V191.9z M519.3,211.8c1,0.4,2.5,0.6,3.9,0.6c4.9,0,8.5-2.6,8.5-8.4c0-4.9-3.2-7.6-7.9-7.6
		c-1.5,0-3.3,0.2-4.6,0.7V211.8z"/>
	<path class="st2" d="M551.3,206.3v0.1c0.6,4,4.5,6,8.3,6c3.8,0,6.6-0.9,9.4-2.5v6.4c-2.6,1.8-6.4,2.6-10.2,2.6
		c-9.2,0-14.9-5.6-14.9-14.4c0-9.3,5.9-15,13.8-15c8.8,0,12.2,5.8,12.2,13.3v3.5H551.3z M562.8,201.8c-0.1-3.5-1.7-6-5.3-6
		c-3.3,0-5.4,2.3-6.1,6H562.8z"/>
	<path class="st2" d="M583.9,218.4h-7.6v-26c3.1-1.6,7.1-2.6,11.3-2.6c2.2,0,3.8,0.2,5.9,0.8v7.3c-1.8-0.8-3.9-1-5.7-1
		c-1.4,0-2.7,0.3-3.9,0.6V218.4z"/>
	<path class="st2" d="M597.5,209.7c2.7,2,6.2,3.2,9,3.2c2.3,0,3.9-0.7,3.9-2.5c0-1.7-1.2-2.4-4.3-3c-6.4-1.1-9-3.7-9-8.8
		c0-6.2,4.7-9,10.8-9c3.3,0,5.8,0.7,8.3,2.1v6.8c-2.7-1.8-5.1-2.7-8-2.7c-2.5,0-3.6,1.1-3.6,2.4c0,1.5,1,2.2,3.7,2.8
		c7.3,1.3,9.7,4.1,9.7,9.2c0,6.1-4.6,8.9-11.2,8.9c-3.4,0-6.9-0.8-9.2-2.3V209.7z"/>
	<path class="st2" d="M620.4,190.2h4.2v-7h7.6v7h8v6.3h-8v11.3c0,3.2,1.5,4.2,3.8,4.2c1.9,0,3.5-0.6,5.2-1.6v7
		c-2,1.1-4.4,1.6-7.3,1.6c-4.9,0-9.3-2.3-9.3-9.2v-13.3h-4.2V190.2z"/>
	<path class="st2" d="M659.4,189.5c8.4,0,14.8,5.9,14.8,14.7c0,8.8-6.4,14.7-14.8,14.7c-8.4,0-14.7-5.9-14.7-14.7
		C644.7,195.5,651,189.5,659.4,189.5 M659.4,196.1c-4.1,0-7.1,3.1-7.1,8.2c0,5.1,3,8.2,7.1,8.2c4.1,0,7.1-3.1,7.1-8.2
		C666.5,199.2,663.5,196.1,659.4,196.1"/>
	<path class="st2" d="M687.3,218.4h-7.6v-26c3.1-1.6,7.1-2.6,11.3-2.6c2.2,0,3.8,0.2,5.9,0.8v7.3c-1.8-0.8-3.9-1-5.7-1
		c-1.4,0-2.7,0.3-3.9,0.6V218.4z"/>
	<path class="st2" d="M707,206.3v0.1c0.6,4,4.5,6,8.3,6c3.8,0,6.6-0.9,9.4-2.5v6.4c-2.6,1.8-6.4,2.6-10.2,2.6
		c-9.2,0-14.9-5.6-14.9-14.4c0-9.3,5.9-15,13.8-15c8.8,0,12.2,5.8,12.2,13.3v3.5H707z M718.5,201.8c-0.1-3.5-1.7-6-5.3-6
		c-3.3,0-5.4,2.3-6.1,6H718.5z"/>
	<path class="st3" d="M439.6,79.7l-45.9-35.3c-2.2-2.1-5.6-2.1-7.8,0l-45.9,35.3c-1.1,1.1-1.8,2.5-1.8,4.1v64c0,3.1,2.5,5.6,5.6,5.6
		h91.7c3.1,0,5.6-2.5,5.6-5.6v-64C441.4,82.2,440.7,80.7,439.6,79.7"/>
	<path class="st2" d="M120.7,57.9v19.7h6.5v55c0,16.6,4.4,23.3,22.2,23.3c3.7,0,13.5-1.5,17-2.1v-18.7l-6,0.4
		c-6,0.4-9.3-0.4-9.3-7.5V77.6h16.8V57.9H151V24.6h-23.9v33.2H120.7z M51.3,135.9c-18.3,0-27.4-14.5-27.4-30.7
		c0-15.4,9.1-29.5,27.4-29.5c18.5,0,26.2,14.1,26.2,29.5C77.5,121.4,69.8,135.9,51.3,135.9 M99.1,77.6h7.6V57.9H79.5v14.3h-0.6
		C71,61.8,59.6,55.8,47.6,55.8C22.2,55.8,0,75.7,0,105.8c0,30.1,22.2,50.1,47.6,50.1c12.7,0,24.5-6.7,31.6-16h0.4v13.9h27.1v-19.7
		h-7.6V77.6z"/>
	<path class="st2" d="M645.9,95.2c2.8-13.2,14.7-21.5,27.7-21.5c14.9,1.1,27.5,10.4,27.5,21.5H645.9z M725.6,111.6
		c0-33.6-18.1-58.4-52-58.4c-30.2,0-53,20.4-53,51.3c0,30.9,22.8,51.3,53,51.3c33.9,0,47.3-21.3,49.2-31.1h-24.5
		c-1.1,1.3-7.2,10.6-22.6,10.6c-15.1,0-28.3-7.2-29.8-23.9H725.6z M484.3,55.4h-29.9v20.2h6.3v57.9h-6.3v20.2h37v-20.2h-6.2V88.8
		c4.3-6.6,11.9-15.1,23-15.1c8.9,0,14.7,5.5,14.7,13.4v46.4h-6.1v20.2h36.8v-20.2h-6.2V88.8c4.3-6.6,11.9-15.1,23-15.1
		c8.9,0,14.7,5.5,14.7,13.4v46.4h-6v20.2h37.5v-20.2h-7V91.2c0-27.3-10.6-37.9-31.5-37.9c-13.4,0-24.1,5.8-34.3,16.6
		c-3.4-11.9-16-16.6-26.8-16.6c-13.4,0-24.1,5.1-32.6,14.9V55.4z M227.8,20.2v113.3h-9.6v20.2h42.7v-20.2h-8.6v-46
		c6.4-7.5,15.5-13.8,25.8-13.8c8.9,0,15.3,5.7,15.3,14.5v45.4h-6.7v20.2h38.2v-20.2h-7V82c0-22.2-21.3-28.8-30.5-28.8
		c-7.2,0-13.4,1.5-19.2,4.1c-5.8,2.6-11.1,6.4-16,10.9V0h-34.1v20.2H227.8z"/>
	<path class="st2" d="M731.1,149.4h0.5c0.7,0,1.1-0.2,1.1-0.9c0-0.6-0.5-0.9-1.1-0.9c-0.1,0-0.4,0-0.5,0V149.4z M731.1,152.6h-1.5
		v-6c0.5-0.1,1.3-0.2,1.9-0.2c1.5,0,2.6,0.7,2.6,2.2c0,0.8-0.5,1.5-1.1,1.8l1.6,2.3H733l-1.3-1.9h-0.6V152.6z M736.7,149.6
		c0-2.9-2-5.1-4.9-5.1c-2.9,0-4.9,2.3-4.9,5.1c0,2.8,2,5.1,4.9,5.1C734.7,154.7,736.7,152.4,736.7,149.6 M725.6,149.6
		c0-3.5,2.6-6.3,6.2-6.3c3.6,0,6.2,2.8,6.2,6.3c0,3.5-2.6,6.3-6.2,6.3C728.2,155.9,725.6,153.1,725.6,149.6"/>
</g>
</svg>
