<?xml version="1.0" encoding="iso-8859-1"?>
<!-- Generator: Adobe Illustrator 19.0.0, SVG Export Plug-In . SVG Version: 6.00 Build 0)  -->
<svg version="1.1" id="Layer_1" xmlns="http://www.w3.org/2000/svg" xmlns:xlink="http://www.w3.org/1999/xlink" x="0px" y="0px"
	 viewBox="0 0 490.667 490.667" style="enable-background:new 0 0 490.667 490.667;" xml:space="preserve">
<g>
	<g>
		<path d="M476.693,211.04c-5.227-4.8-11.307-8.533-18.027-10.88v-2.773c0-79.36-38.827-96-71.253-96H110.08
			c-57.6,0-78.08,49.813-78.08,96.427v2.24c-6.507,2.453-12.587,6.08-17.813,10.773C0,223.627,0,237.707,0,250.08v73.813
			c0,34.24,30.933,65.387,64.96,65.387h367.467c32.107,0,58.24-29.333,58.24-65.387V250.72
			C490.667,227.36,487.893,221.6,476.693,211.04z M256,122.72h131.413c21.44,0,49.92,7.68,49.92,74.453
			c-5.653,0.32-11.307,1.6-16.533,3.84c-16.32,7.04-26.133,21.973-26.133,39.787v33.493c0,2.347,0.213,4.693,0.427,7.04
			c0,0.427,0.107,0.853,0.107,1.387L256,282.827V122.72z M110.08,122.72h124.587v160l-136.32,0.107
			c-0.853-0.64-2.347-4.053-2.347-8.533v-34.347c0-17.813-9.28-32.64-24.853-39.573c-5.653-2.453-11.733-3.733-17.813-3.947
			C53.547,173.387,59.733,122.72,110.08,122.72z M469.333,324c0,21.227-14.08,44.053-36.907,44.053H64.96
			c-21.973,0-43.627-21.867-43.627-44.053v-73.813c0-11.733,0.32-17.28,7.147-23.467c6.293-5.653,14.507-8.853,22.933-8.96
			c3.84,0,7.573,0.747,11.093,2.24c5.547,2.453,12.16,8,12.16,20.053v34.24c0,17.28,9.707,29.76,23.147,29.76h301.76
			c6.507,0,10.453-2.773,12.587-5.12c5.227-5.653,4.587-13.227,4.16-19.307c-0.107-1.707-0.32-3.52-0.32-5.227v-33.493
			c0-12.587,8.32-18.027,13.227-20.16c11.093-4.587,23.893-2.24,32.747,5.973c6.613,6.187,7.36,6.933,7.36,24.213V324z"/>
	</g>
</g>
<g>
</g>
<g>
</g>
<g>
</g>
<g>
</g>
<g>
</g>
<g>
</g>
<g>
</g>
<g>
</g>
<g>
</g>
<g>
</g>
<g>
</g>
<g>
</g>
<g>
</g>
<g>
</g>
<g>
</g>
</svg>
